<svg width="7" height="7" viewBox="0 0 7 7" fill="none" xmlns="http://www.w3.org/2000/svg">
<path d="M0.954611 8.95083e-05C0.873198 8.95083e-05 0.791696 0.0311015 0.729652 0.0933045L0.0933045 0.729652C-0.0311015 0.854058 -0.0311015 1.05548 0.0933045 1.17957L2.41374 3.5L0.0933045 5.82043C-0.0311015 5.94484 -0.0311015 6.14626 0.0933045 6.27035L0.729652 6.9067C0.854058 7.0311 1.05548 7.0311 1.17957 6.9067L3.5 4.58626L5.82043 6.9067C5.94452 7.0311 6.14626 7.0311 6.27035 6.9067L6.9067 6.27035C7.0311 6.14594 7.0311 5.94452 6.9067 5.82043L4.58626 3.5L6.9067 1.17957C7.0311 1.05548 7.0311 0.85374 6.9067 0.729652L6.27035 0.0933045C6.14594 -0.0311015 5.94452 -0.0311015 5.82043 0.0933045L3.5 2.41374L1.17957 0.0933045C1.11737 0.0311015 1.03602 8.95083e-05 0.954611 8.95083e-05Z" fill="white"/>
</svg>
