<svg width="10" height="5" viewBox="0 0 10 5" fill="none" xmlns="http://www.w3.org/2000/svg">
<path d="M0.390056 0.192543C0.339095 0.191823 0.288499 0.201238 0.241208 0.220241C0.193917 0.239245 0.150874 0.267458 0.114582 0.30324C0.078289 0.339023 0.0494701 0.381663 0.0297998 0.42868C0.0101295 0.475698 0 0.526156 0 0.577122C0 0.628088 0.0101295 0.678547 0.0297998 0.725564C0.0494701 0.772582 0.078289 0.815221 0.114582 0.851004C0.150874 0.886787 0.193917 0.915 0.241208 0.934003C0.288499 0.953007 0.339095 0.962422 0.390056 0.961701H9.61994C9.67091 0.962422 9.7215 0.953007 9.76879 0.934003C9.81608 0.915 9.85913 0.886787 9.89542 0.851004C9.93171 0.815221 9.96053 0.772582 9.9802 0.725564C9.99987 0.678547 10.01 0.628088 10.01 0.577122C10.01 0.526156 9.99987 0.475698 9.9802 0.42868C9.96053 0.381663 9.93171 0.339023 9.89542 0.30324C9.85913 0.267458 9.81608 0.239245 9.76879 0.220241C9.7215 0.201238 9.67091 0.191823 9.61994 0.192543H0.390056ZM0.390056 4.03833C0.339095 4.03761 0.288499 4.04703 0.241208 4.06603C0.193917 4.08503 0.150874 4.11325 0.114582 4.14903C0.078289 4.18481 0.0494701 4.22745 0.0297998 4.27447C0.0101295 4.32149 0 4.37194 0 4.42291C0 4.47388 0.0101295 4.52433 0.0297998 4.57135C0.0494701 4.61837 0.078289 4.66101 0.114582 4.69679C0.150874 4.73257 0.193917 4.76079 0.241208 4.77979C0.288499 4.79879 0.339095 4.80821 0.390056 4.80749H9.61994C9.67091 4.80821 9.7215 4.79879 9.76879 4.77979C9.81608 4.76079 9.85913 4.73257 9.89542 4.69679C9.93171 4.66101 9.96053 4.61837 9.9802 4.57135C9.99987 4.52433 10.01 4.47388 10.01 4.42291C10.01 4.37194 9.99987 4.32149 9.9802 4.27447C9.96053 4.22745 9.93171 4.18481 9.89542 4.14903C9.85913 4.11325 9.81608 4.08503 9.76879 4.06603C9.7215 4.04703 9.67091 4.03761 9.61994 4.03833H0.390056Z" fill="#AEAEAE"/>
</svg>
