<svg width="63" height="66" viewBox="0 0 63 66" fill="none" xmlns="http://www.w3.org/2000/svg">
<path d="M42.3956 7.96388L53.8863 17.6057C57.6939 20.8007 58.1906 26.4775 54.9956 30.2852L39.5687 48.6702L14.2892 27.4583L29.7161 9.07319C32.9111 5.26552 38.5879 4.76886 42.3956 7.96388Z" fill="white" stroke="black" stroke-width="2"/>
<mask id="path-2-inside-1_39_4" fill="white">
<path d="M12.8804 27.5815L39.6919 50.0791L33.2641 57.7396C29.714 61.9703 23.4065 62.5221 19.1757 58.9721L7.68506 49.3303C3.45432 45.7803 2.90248 39.4727 6.4525 35.242L12.8804 27.5815Z"/>
</mask>
<path d="M12.8804 27.5815L39.6919 50.0791L33.2641 57.7396C29.714 61.9703 23.4065 62.5221 19.1757 58.9721L7.68506 49.3303C3.45432 45.7803 2.90248 39.4727 6.4525 35.242L12.8804 27.5815Z" fill="white"/>
<path d="M12.8804 27.5815L39.6919 50.0791L12.8804 27.5815ZM34.7961 59.0251C30.5361 64.102 22.9671 64.7642 17.8902 60.5042L6.39949 50.8624C1.32259 46.6024 0.660385 39.0333 4.92041 33.9564L7.98458 36.5276C5.14457 39.9122 5.58604 44.9582 8.97064 47.7982L20.4613 57.44C23.8459 60.28 28.8919 59.8386 31.732 56.454L34.7961 59.0251ZM6.39949 50.8624C1.32259 46.6024 0.660385 39.0333 4.92041 33.9564L11.3483 26.296L14.4125 28.8671L7.98458 36.5276C5.14457 39.9122 5.58604 44.9582 8.97064 47.7982L6.39949 50.8624ZM41.224 51.3647L34.7961 59.0251C30.5361 64.102 22.9671 64.7642 17.8902 60.5042L20.4613 57.44C23.8459 60.28 28.8919 59.8386 31.732 56.454L38.1598 48.7935L41.224 51.3647Z" fill="black" mask="url(#path-2-inside-1_39_4)"/>
</svg>
