<svg width="8" height="9" viewBox="0 0 8 9" fill="none" xmlns="http://www.w3.org/2000/svg">
<path d="M1.10099 0.500102C1.00795 0.500102 0.914805 0.535545 0.843898 0.606634L0.116643 1.33389C-0.0255348 1.47607 -0.0255348 1.70626 0.116643 1.84808L2.76857 4.5L0.116643 7.15192C-0.0255348 7.2941 -0.0255348 7.5243 0.116643 7.66611L0.843898 8.39337C0.986076 8.53554 1.21627 8.53554 1.35809 8.39337L4.01001 5.74144L6.66193 8.39337C6.80375 8.53554 7.03431 8.53554 7.17612 8.39337L7.90338 7.66611C8.04555 7.52393 8.04555 7.29374 7.90338 7.15192L5.25145 4.5L7.90338 1.84808C8.04555 1.70626 8.04555 1.4757 7.90338 1.33389L7.17612 0.606634C7.03394 0.464455 6.80375 0.464455 6.66193 0.606634L4.01001 3.25856L1.35809 0.606634C1.287 0.535545 1.19403 0.500102 1.10099 0.500102Z" fill="#414141"/>
</svg>
