<svg width="10" height="5" viewBox="0 0 10 5" fill="none" xmlns="http://www.w3.org/2000/svg">
<path d="M0.390056 3.84607e-05C0.339095 -0.000682258 0.288499 0.00873273 0.241208 0.0277362C0.193917 0.0467397 0.150874 0.0749526 0.114582 0.110736C0.078289 0.146518 0.0494701 0.189158 0.0297998 0.236175C0.0101295 0.283193 0 0.333651 0 0.384617C0 0.435584 0.0101295 0.486042 0.0297998 0.533059C0.0494701 0.580077 0.078289 0.622716 0.114582 0.658499C0.150874 0.694282 0.193917 0.722495 0.241208 0.741498C0.288499 0.760502 0.339095 0.769917 0.390056 0.769196H9.61994C9.67091 0.769917 9.7215 0.760502 9.76879 0.741498C9.81608 0.722495 9.85913 0.694282 9.89542 0.658499C9.93171 0.622716 9.96053 0.580077 9.9802 0.533059C9.99987 0.486042 10.01 0.435584 10.01 0.384617C10.01 0.333651 9.99987 0.283193 9.9802 0.236175C9.96053 0.189158 9.93171 0.146518 9.89542 0.110736C9.85913 0.0749526 9.81608 0.0467397 9.76879 0.0277362C9.7215 0.00873273 9.67091 -0.000682258 9.61994 3.84607e-05H0.390056ZM0.390056 3.84583C0.339095 3.84511 0.288499 3.85452 0.241208 3.87352C0.193917 3.89253 0.150874 3.92074 0.114582 3.95652C0.078289 3.99231 0.0494701 4.03495 0.0297998 4.08196C0.0101295 4.12898 0 4.17944 0 4.2304C0 4.28137 0.0101295 4.33183 0.0297998 4.37885C0.0494701 4.42586 0.078289 4.4685 0.114582 4.50429C0.150874 4.54007 0.193917 4.56828 0.241208 4.58729C0.288499 4.60629 0.339095 4.6157 0.390056 4.61498H9.61994C9.67091 4.6157 9.7215 4.60629 9.76879 4.58729C9.81608 4.56828 9.85913 4.54007 9.89542 4.50429C9.93171 4.4685 9.96053 4.42586 9.9802 4.37885C9.99987 4.33183 10.01 4.28137 10.01 4.2304C10.01 4.17944 9.99987 4.12898 9.9802 4.08196C9.96053 4.03495 9.93171 3.99231 9.89542 3.95652C9.85913 3.92074 9.81608 3.89253 9.76879 3.87352C9.7215 3.85452 9.67091 3.84511 9.61994 3.84583H0.390056Z" fill="white"/>
</svg>
