<svg width="24" height="24" viewBox="0 0 24 24" fill="none" xmlns="http://www.w3.org/2000/svg">
<path d="M12 8.2115e-05C8.58307e-05 0 8.51768e-05 8.29697e-05 4.46697e-07 12.0001C-8.42834e-05 24.0001 1.90735e-06 24.0001 12 24.0001C24 24.0001 24 24.0001 24 12.0001C24 8.29697e-05 24 0.000164231 12 8.2115e-05ZM18.707 9.70708L11.147 17.2671C10.959 17.4551 10.705 17.5601 10.44 17.5601C10.175 17.5601 9.92 17.4551 9.733 17.2671L6.28 13.8141C5.889 13.4231 5.889 12.7911 6.28 12.4001C6.671 12.0091 7.303 12.0091 7.694 12.4001L10.44 15.1461L17.293 8.29308C17.684 7.90208 18.316 7.90208 18.707 8.29308C19.098 8.68408 19.098 9.31608 18.707 9.70708Z" fill="#A3A3A3"/>
</svg>
