<svg width="24" height="24" viewBox="0 0 24 24" fill="none" xmlns="http://www.w3.org/2000/svg">
<path d="M12 1.06513e-06C9.15527e-05 -0.000150424 0 9.53674e-07 0 12C0 24 0 23.9998 12 24C24 24.0002 24 24 24 12C24 1.90735e-06 24 0.000152556 12 1.06513e-06ZM13.414 12C13.414 12 16.553 15.139 16.707 15.293C17.098 15.684 17.098 16.317 16.707 16.707C16.316 17.098 15.683 17.098 15.293 16.707C15.139 16.554 12 13.414 12 13.414C12 13.414 8.861 16.553 8.707 16.707C8.316 17.098 7.683 17.098 7.293 16.707C6.902 16.316 6.902 15.683 7.293 15.293C7.446 15.139 10.586 12 10.586 12C10.586 12 7.447 8.861 7.293 8.707C6.902 8.316 6.902 7.683 7.293 7.293C7.684 6.902 8.317 6.902 8.707 7.293C8.861 7.446 12 10.586 12 10.586C12 10.586 15.139 7.447 15.293 7.293C15.684 6.902 16.317 6.902 16.707 7.293C17.098 7.684 17.098 8.317 16.707 8.707C16.554 8.861 13.414 12 13.414 12Z" fill="#A3A3A3"/>
</svg>
